<?xml version="1.0" encoding="utf-8"?>

<!-- License Agreement at http://iconmonstr.com/license/ -->

<!DOCTYPE svg PUBLIC "-//W3C//DTD SVG 1.1//EN" "http://www.w3.org/Graphics/SVG/1.1/DTD/svg11.dtd">
<svg version="1.1" xmlns="http://www.w3.org/2000/svg" xmlns:xlink="http://www.w3.org/1999/xlink" x="0px" y="0px"
	 width="512px" height="512px" viewBox="0 0 512 512" enable-background="new 0 0 512 512" xml:space="preserve">
<path id="instagram-10-icon" d="M256,90c44.34,0,86.026,17.268,117.38,48.62C404.733,169.974,422,211.66,422,256
	s-17.267,86.026-48.62,117.38C342.026,404.732,300.34,422,256,422s-86.026-17.268-117.38-48.62C107.267,342.026,90,300.34,90,256
	s17.267-86.026,48.62-117.38C169.974,107.268,211.66,90,256,90 M256,50C142.229,50,50,142.229,50,256s92.229,206,206,206
	s206-92.229,206-206S369.771,50,256,50L256,50z M332.569,240.88h-17.104c1.246,4.838,1.981,9.892,1.981,15.115
	c0,33.392-27.062,60.453-60.446,60.453c-33.383,0-60.446-27.062-60.446-60.453c0-5.224,0.739-10.277,1.985-15.115h-17.104v83.124
	c0,4.169,3.384,7.549,7.563,7.549h136.007c4.179,0,7.564-3.38,7.564-7.549V240.88z M332.569,187.991
	c0-4.172-3.386-7.557-7.564-7.557h-22.664c-4.175,0-7.556,3.385-7.556,7.557v22.671c0,4.17,3.381,7.557,7.556,7.557h22.664
	c4.179,0,7.564-3.387,7.564-7.557V187.991z M257,218.219c-20.867,0-37.781,16.909-37.781,37.776
	c0,20.865,16.914,37.787,37.781,37.787s37.785-16.922,37.785-37.787C294.785,235.128,277.867,218.219,257,218.219 M332.569,354.23
	H181.435c-12.516,0-22.665-10.151-22.665-22.678V180.435c0-12.52,10.149-22.665,22.665-22.665h151.135
	c12.518,0,22.662,10.146,22.662,22.665v151.118C355.231,344.079,345.087,354.23,332.569,354.23"/>
</svg>
