<svg xmlns="http://www.w3.org/2000/svg" width="890.955" height="890.954" viewBox="0, 0, 890.955, 890.954"><g fill="#DB073D"><path d="M486.4 180.712c24.521 0 40.811-17.122 44.409-41.096l12.34-98.526c0-22.689-19.889-41.09-44.411-41.09h-106.507c-24.531 0-44.418 18.401-44.418 41.09l12.338 98.526c3.086 26.825 19.888 41.096 44.412 41.096 18.837 0 22.951-5.714 43.514-5.714 22.096 0 25.754 5.714 38.323 5.714"/><path d="M540.398 451.477l-208.09 110.093-5.814 34.893 218.776-115.746zM519.691 327.246l-162.673 86.064-21.549 129.297 202.281-107.017zM360.18 394.339l156.861-82.987-4.41-26.447-147.191 77.876zM312.68 740.73l23.695 28.174 236.11-124.914-21.918-131.504-230.395 121.899-7.492 44.951c-1.862 9.162-15.627 44.434 0 61.394"/><path d="M383.322 824.719l45.026 53.535c15.627 16.934 18.734 16.934 34.367 0l115.661-137.524c5.718-6.205 7.439-14.475 7.266-23.057l-202.32 107.046zM507.335 253.134l-8.154-48.92c-15.627-16.955-91.673-16.955-107.312 0l-20.109 120.647 135.575-71.727zM578.376 679.336l-.597-3.576-221.277 117.074 16.749 19.912 210.308-111.266c-1.933-9.121-4.586-17.283-5.183-22.144"/></g></svg>